<?xml version="1.0" encoding="UTF-8" standalone="no"?>
<!-- Created with Inkscape (http://www.inkscape.org/) -->

<svg
   width="184.77502mm"
   height="184.77505mm"
   viewBox="0 0 184.77502 184.77505"
   version="1.1"
   id="svg1"
   xml:space="preserve"
   xmlns="http://www.w3.org/2000/svg"
   xmlns:svg="http://www.w3.org/2000/svg"><defs
     id="defs1" /><g
     id="layer10"
     transform="translate(-2857.2825,-503.50212)"><circle
       style="display:inline;fill:#1c302a;fill-opacity:1;stroke-width:0.258066"
       id="path45-5-5-7-9-8-44-0"
       cx="2949.6699"
       cy="595.88965"
       r="92.387543" /><path
       style="display:inline;fill:#b4d779;fill-opacity:1;stroke-width:0.601119"
       d="m 2972.5222,665.24597 -4.1171,-5.16394 -3.8136,-4.23618 -3.1801,-2.54945 -2.9849,-2.50582 -4.1742,-2.998 -6.99,-4.01419 -10.4944,-4.87752 -9.7868,-4.40106 -7.3014,-4.04673 -4.0976,-3.05751 -5.2504,-4.08543 -4.6125,-4.3197 -5.6029,-6.65816 -6.1226,-7.81324 5.8877,-2.7981 2.0045,2.7981 5.7604,7.61874 6.4205,6.17662 6.3398,5.21101 6.5103,4.1003 8.3996,4.3536 8.1104,4.40173 8.0834,4.86497 7.1509,5.36112 5.0499,4.9798 3.3219,4.08892 c 0,0 1.2372,1.23051 2.626,3.43665 l 0.9154,1.21385 c 0.4402,0.83249 0.9617,1.84183 0.9617,1.84183 l 0.7069,1.77149 z"
       id="path338-3-8-4-5-1-7-9-9-8-6-5-6-9" /><g
       id="g5-3-8-4-1-8-6-2-7-5"
       transform="matrix(2.0876605,0,0,2.472499,2946.1149,327.15801)"
       style="display:inline;fill:#b4d779;fill-opacity:1"><g
         id="g350-0-6-0-6-6-4-2-3-6-4-9-8-6"
         style="display:inline;fill:#b4d779;fill-opacity:1"
         transform="matrix(1.1159267,0,0,1,-120.6626,-47.606932)"><path
           style="display:inline;fill:#b4d779;fill-opacity:1;stroke-width:0.264583"
           d="m 78.346122,150.2201 -0.232945,1.42661 -0.0085,1.34734 0.178969,1.49052 0.170447,0.83346 0.664742,1.37803 0.664742,1.10958 0.894847,1.18884 0.784056,0.57268 1.16472,0.54201 1.258466,0.40395 1.224378,0.22498 1.434595,0.0869 0.602247,-0.14317 1.08802,-0.48321 1.684583,-0.98175 1.224375,-1.03543 0.68747,-0.7491 0.642017,-1.11213 0.428958,-0.82836 0.201695,-1.1786 0.06818,-1.3269 -0.02556,-1.64647 -0.153402,-2.14502 -0.03693,-2.06832"
           id="path339-0-4-3-1-3-9-1-2-7-0-4-4-7" /><path
           style="fill:#b4d779;fill-opacity:1;stroke-width:0.264583"
           d="m 93.882357,134.69999 0.684628,0.2889 0.607928,0.34003 0.258511,0.34003 0.463047,0.71841 0.201697,0.67496 0.03409,0.6366 -0.03693,1.07123 -0.156245,0.60848 -0.335211,1.05844 -0.312486,0.63405 -0.542589,0.90505 -0.610769,0.91527 -0.681787,1.29366 -0.383505,1.05334 -0.09943,0.6366 -0.03977,0.68262 -0.0085,0.98431 -14.760705,3.973 0.201695,-1.57232 14.803315,-14.99211 z"
           id="path340-4-2-8-5-8-0-7-3-0-8-7-40-2" /><path
           style="display:inline;fill:#b4d779;fill-opacity:1;stroke-width:0.264583"
           d="m 104.96629,169.15312 -3.67398,-2.3827 -0.58454,-0.45737 -1.096771,-1.1317 -0.65083,-0.84786 -0.455983,-0.72674 -0.216945,-0.52246 -0.122531,-0.61466 0.04218,-1.16965 0.156681,-1.07927"
           id="path341-7-3-1-2-2-8-4-0-1-2-4-01-7" /><path
           style="display:inline;fill:#b4d779;fill-opacity:1;stroke-width:0.264583"
           d="m 98.363573,160.28399 0.293277,-1.00515 0.449956,-1.14977 0.407773,-0.8569 0.345504,-0.555 0.435897,-0.46461 0.60664,-0.40676 0.81353,-0.19343 2.05127,-0.0775 1.29328,3.08747 -0.85371,1.58364 -0.47607,1.02684 -0.14463,0.78278 -0.0944,0.8786 -0.0603,1.76624 0.0341,1.00333 0.0643,0.49715"
           id="path342-7-9-3-4-4-6-7-3-3-4-3-0-1" /><path
           style="display:inline;fill:#b4d779;fill-opacity:1;stroke-width:0.264583"
           d="m 103.49389,166.09611 0.2772,1.02322 0.26917,0.58031 0.86175,1.40467 -6.339571,-8.39729 0.172752,-0.18982 z"
           id="path343-3-4-8-1-7-7-5-3-1-0-1-6-1" /><path
           style="display:inline;fill:#b4d779;fill-opacity:1;stroke-width:0.264583"
           d="m 103.75502,155.57254 7.78386,-0.1392 1.11083,-0.0759 0.9903,-0.2314 0.86778,-0.32902 1.07668,-0.59839 0.86978,-0.59115 0.56646,-0.59658 1.68533,1.53303 -1.66925,1.14615 -1.40009,0.65624 -1.52865,0.51161 -0.93205,0.1844 -4.51765,0.18801 -1.00035,0.13739 -1.22935,0.3236 -0.76332,0.45015 -0.63476,0.52426 z"
           id="path344-5-8-8-8-4-1-6-8-7-2-4-9-4" /><path
           style="display:inline;fill:#b4d779;fill-opacity:1;stroke-width:0.264583"
           d="m 118.68907,154.57034 0.7244,-1.01754 0.78263,-1.3857 1.04399,-2.24472 0.49287,-1.49308 0.23295,-0.85008 0.0653,-0.28379 0.13067,-0.16106 0.25141,-0.17769 0.51418,-0.42057 0.33521,-0.41545 0.17897,-0.44613 0.0128,-0.45636 -0.19175,-0.48576 -0.76559,-1.06612 -0.446,-0.41801 -0.41581,-0.27493 -0.52406,-0.23043 -0.472,0.44401 0.40339,0.26461 0.27271,0.31447 0.17471,0.44741 0.007,0.45636 -0.20311,0.38477 -0.54969,0.50622 -0.31249,0.271 -0.1605,0.36688 -0.28692,0.8079 -0.50424,1.55571 -0.48578,1.25786 -1.2542,2.26902 -0.72156,0.94084 z"
           id="path345-4-4-3-1-2-5-9-1-0-9-3-94-7" /><path
           style="display:inline;fill:#b4d779;fill-opacity:1;stroke-width:0.264583"
           d="m 103.44816,140.68191 0.10937,-0.48704 0.18465,-0.33492 0.19601,-0.15852 0.28976,-0.16745 0.32101,-0.0972 0.33805,-0.0741 0.43606,-0.0166 0.66617,0.14061 0.64201,0.30041 0.34232,0.33875 0.1747,0.36688 0.0647,0.30314 0.051,0.29737 0.0306,0.28529 0.008,0.20604 0.007,0.1788 -0.006,0.30424 -0.11647,0.79767 -0.11079,0.37839 -0.1463,0.12783 -0.28124,0.0307"
           id="path346-9-0-0-0-8-3-5-1-0-7-4-6-0" /><path
           style="display:inline;fill:#b4d779;fill-opacity:1;stroke-width:0.264583"
           d="m 103.45242,140.65762 -0.0128,0.49343 0.1463,0.51644 0.40197,0.54967 0.571,0.48065 0.72156,0.40267 0.78405,0.29018 0.66616,-0.005 z"
           id="path347-0-7-7-6-8-0-9-7-4-1-3-8-9" /><path
           style="display:inline;fill:#b4d779;fill-opacity:1;stroke-width:0.264583"
           d="m 121.1176,142.74482 -2.75556,-1.13771 -4.27537,-1.77942 -2.78681,-1.22462 -0.76985,-0.79256 -0.66475,-1.19395 -0.50282,-1.0022 -0.60224,-0.88715 -0.82951,-0.80279 -2.06809,-1.3908 -2.01411,-0.90505 -1.90049,-0.37583 -3.048156,-0.17385 -2.374895,0.10227 -1.491408,0.29145 -1.542545,0.67495 -2.75113,1.70419 -1.863944,1.47931 -0.963414,1.10621 -0.86387,1.06682 -1.268463,1.80819 8.148302,-4.57485 0.411911,-0.43462 2.488526,-2.2115 8.738246,1.16583 5.24124,5.57347 9.99103,4.42298"
           id="path348-8-7-8-2-8-7-9-1-5-1-5-17-4" /><path
           style="display:inline;fill:#b4d779;fill-opacity:1;stroke-width:0.264583"
           d="m 120.28241,143.03116 -8.38883,-3.06285 -0.87277,-0.49879 -0.82318,-0.59801 -1.11074,-1.34479 -1.75845,-2.0632 -1.07949,-0.78233 -1.60722,-0.75903 -1.654,-0.47838 -1.65618,-0.35538 -2.298189,-0.33747 -1.363576,0.005 -1.551067,0.43462 -1.971503,1.19395 2.221492,-2.69214 5.255453,0.27101 4.11913,1.05078 3.30099,3.47191 1.89196,2.23961 9.57343,4.05738 z"
           id="path349-8-1-7-3-4-2-9-4-9-4-6-2-5" /><path
           style="display:inline;fill:#b4d779;fill-opacity:1;stroke-width:0.264583"
           d="m 87.355385,138.10128 -1.631273,1.24928 -1.781749,1.90724 -2.583235,3.33 -0.938078,1.33416 -0.851704,1.35948 -0.940089,1.79154 -0.329432,1.21947 15.682303,-15.61576"
           id="path350-6-4-3-4-3-0-5-0-1-1-0-8-2" /></g><g
         id="g337-5-3-1-4-0-0-1-8-5-4-8-0-1"
         style="display:inline;fill:#b4d779;fill-opacity:1"
         transform="matrix(0.6468293,0,0,0.59127123,-44.768716,29.388568)"><path
           style="display:inline;fill:#b4d779;fill-opacity:1;stroke-width:0.264583"
           d="m 78.346122,150.2201 -0.232945,1.42661 -0.0085,1.34734 0.178969,1.49052 0.170447,0.83346 0.664742,1.37803 0.664742,1.10958 0.894847,1.18884 0.784056,0.57268 1.16472,0.54201 1.258466,0.40395 1.224378,0.22498 1.434595,0.0869 0.602247,-0.14317 1.08802,-0.48321 1.684583,-0.98175 1.224375,-1.03543 0.68747,-0.7491 0.642017,-1.11213 0.428958,-0.82836 0.201695,-1.1786 0.06818,-1.3269 -0.02556,-1.64647 -0.153402,-2.14502 -0.03693,-2.06832"
           id="path326-3-3-9-4-7-5-4-3-0-9-5-9-5" /><path
           style="fill:#b4d779;fill-opacity:1;stroke-width:0.264583"
           d="m 93.882357,134.69999 0.684628,0.2889 0.607928,0.34003 0.258511,0.34003 0.463047,0.71841 0.201697,0.67496 0.03409,0.6366 -0.03693,1.07123 -0.156245,0.60848 -0.335211,1.05844 -0.312486,0.63405 -0.542589,0.90505 -0.610769,0.91527 -0.681787,1.29366 -0.383505,1.05334 -0.09943,0.6366 -0.03977,0.68262 -0.0085,0.98431 -14.760705,3.973 0.201695,-1.57232 14.803315,-14.99211 z"
           id="path327-2-0-7-1-4-7-3-8-7-9-1-51-2" /><path
           style="display:inline;fill:#b4d779;fill-opacity:1;stroke-width:0.264583"
           d="m 104.96629,169.15312 -3.67398,-2.3827 -0.58454,-0.45737 -1.096771,-1.1317 -0.65083,-0.84786 -0.455983,-0.72674 -0.216945,-0.52246 -0.122531,-0.61466 0.04218,-1.16965 0.156681,-1.07927"
           id="path328-1-6-1-7-7-8-7-7-1-4-3-5-6" /><path
           style="display:inline;fill:#b4d779;fill-opacity:1;stroke-width:0.264583"
           d="m 98.363573,160.28399 0.293277,-1.00515 0.449956,-1.14977 0.407773,-0.8569 0.345504,-0.555 0.435897,-0.46461 0.60664,-0.40676 0.81353,-0.19343 2.05127,-0.0775 1.29328,3.08747 -0.85371,1.58364 -0.47607,1.02684 -0.14463,0.78278 -0.0944,0.8786 -0.0603,1.76624 0.0341,1.00333 0.0643,0.49715"
           id="path329-1-1-7-4-5-4-9-6-3-6-1-1-0" /><path
           style="display:inline;fill:#b4d779;fill-opacity:1;stroke-width:0.264583"
           d="m 103.49389,166.09611 0.2772,1.02322 0.26917,0.58031 0.86175,1.40467 -6.339571,-8.39729 0.172752,-0.18982 z"
           id="path330-4-2-4-3-8-8-2-6-8-9-2-4-5" /><path
           style="display:inline;fill:#b4d779;fill-opacity:1;stroke-width:0.264583"
           d="m 103.75502,155.57254 7.78386,-0.1392 1.11083,-0.0759 0.9903,-0.2314 0.86778,-0.32902 1.07668,-0.59839 0.86978,-0.59115 0.56646,-0.59658 1.68533,1.53303 -1.66925,1.14615 -1.40009,0.65624 -1.52865,0.51161 -0.93205,0.1844 -4.51765,0.18801 -1.00035,0.13739 -1.22935,0.3236 -0.76332,0.45015 -0.63476,0.52426 z"
           id="path331-8-4-9-21-2-0-0-5-2-4-1-3-4" /><path
           style="display:inline;fill:#b4d779;fill-opacity:1;stroke-width:0.264583"
           d="m 118.68907,154.57034 0.7244,-1.01754 0.78263,-1.3857 1.04399,-2.24472 0.49287,-1.49308 0.23295,-0.85008 0.0653,-0.28379 0.13067,-0.16106 0.25141,-0.17769 0.51418,-0.42057 0.33521,-0.41545 0.17897,-0.44613 0.0128,-0.45636 -0.19175,-0.48576 -0.76559,-1.06612 -0.446,-0.41801 -0.41581,-0.27493 -0.52406,-0.23043 -0.472,0.44401 0.40339,0.26461 0.27271,0.31447 0.17471,0.44741 0.007,0.45636 -0.20311,0.38477 -0.54969,0.50622 -0.31249,0.271 -0.1605,0.36688 -0.28692,0.8079 -0.50424,1.55571 -0.48578,1.25786 -1.2542,2.26902 -0.72156,0.94084 z"
           id="path332-3-8-4-09-7-5-4-9-0-9-3-34-9" /><path
           style="display:inline;fill:#b4d779;fill-opacity:1;stroke-width:0.264583"
           d="m 103.44816,140.68191 0.10937,-0.48704 0.18465,-0.33492 0.19601,-0.15852 0.28976,-0.16745 0.32101,-0.0972 0.33805,-0.0741 0.43606,-0.0166 0.66617,0.14061 0.64201,0.30041 0.34232,0.33875 0.1747,0.36688 0.0647,0.30314 0.051,0.29737 0.0306,0.28529 0.008,0.20604 0.007,0.1788 -0.006,0.30424 -0.11647,0.79767 -0.11079,0.37839 -0.1463,0.12783 -0.28124,0.0307"
           id="path333-1-9-7-1-0-1-5-7-7-2-6-9-6" /><path
           style="display:inline;fill:#b4d779;fill-opacity:1;stroke-width:0.264583"
           d="m 103.45242,140.65762 -0.0128,0.49343 0.1463,0.51644 0.40197,0.54967 0.571,0.48065 0.72156,0.40267 0.78405,0.29018 0.66616,-0.005 z"
           id="path334-6-2-2-2-3-0-8-1-8-1-0-5-6" /><path
           style="display:inline;fill:#b4d779;fill-opacity:1;stroke-width:0.264583"
           d="m 121.1176,142.74482 -2.75556,-1.13771 -4.27537,-1.77942 -2.78681,-1.22462 -0.76985,-0.79256 -0.66475,-1.19395 -0.50282,-1.0022 -0.60224,-0.88715 -0.82951,-0.80279 -2.06809,-1.3908 -2.01411,-0.90505 -1.90049,-0.37583 -3.048156,-0.17385 -2.374895,0.10227 -1.491408,0.29145 -1.542545,0.67495 -2.75113,1.70419 -1.863944,1.47931 -0.963414,1.10621 -0.86387,1.06682 -1.268463,1.80819 8.148302,-4.57485 0.411911,-0.43462 2.488526,-2.2115 8.738246,1.16583 5.24124,5.57347 9.99103,4.42298"
           id="path335-6-8-5-51-0-7-0-9-64-5-4-6-2" /><path
           style="display:inline;fill:#b4d779;fill-opacity:1;stroke-width:0.264583"
           d="m 120.28241,143.03116 -8.38883,-3.06285 -0.87277,-0.49879 -0.82318,-0.59801 -1.11074,-1.34479 -1.75845,-2.0632 -1.07949,-0.78233 -1.60722,-0.75903 -1.654,-0.47838 -1.65618,-0.35538 -2.298189,-0.33747 -1.363576,0.005 -1.551067,0.43462 -1.971503,1.19395 2.221492,-2.69214 5.255453,0.27101 4.11913,1.05078 3.30099,3.47191 1.89196,2.23961 9.57343,4.05738 z"
           id="path336-9-6-9-5-2-1-9-4-7-3-2-5-8" /><path
           style="display:inline;fill:#b4d779;fill-opacity:1;stroke-width:0.264583"
           d="m 87.355385,138.10128 -1.631273,1.24928 -1.781749,1.90724 -2.583235,3.33 -0.938078,1.33416 -0.851704,1.35948 -0.940089,1.79154 -0.329432,1.21947 15.682303,-15.61576"
           id="path337-5-1-4-4-9-8-7-9-2-4-7-85-3" /></g></g></g></svg>
